<svg width="192" height="21" viewBox="0 0 192 21" fill="none" xmlns="http://www.w3.org/2000/svg">
  <g clip-path="url(#clip0_4143_61914)">
    <path d="M8 3.70805V19.8269H4.9505V3.70805H0V1.13379H12.9505V3.70805H8Z" fill="black" />
    <path
      d="M38.4554 10.5199C38.4554 11.8665 38.2178 13.0942 37.703 14.2823C37.1881 15.4704 36.4752 16.5397 35.5248 17.4506C34.5743 18.3615 33.4653 19.0744 32.2772 19.5892C31.0495 20.0645 29.7822 20.3417 28.4752 20.3417C27.1287 20.3417 25.8614 20.1041 24.6337 19.5892C23.4059 19.0744 22.3366 18.4011 21.3861 17.4506C20.4356 16.5397 19.7228 15.4704 19.2079 14.2823C18.6931 13.0942 18.4554 11.8665 18.4554 10.5199C18.4554 9.17338 18.6931 7.90606 19.2079 6.75754C19.7228 5.60903 20.4356 4.50012 21.3861 3.58923C22.3366 2.67833 23.4059 1.96546 24.6337 1.49022C25.8614 1.01497 27.1287 0.777344 28.4752 0.777344C29.8218 0.777344 31.0891 1.01497 32.3168 1.49022C33.5446 1.96546 34.6139 2.67833 35.5644 3.58923C36.5149 4.53972 37.2277 5.60903 37.7426 6.79715C38.2178 7.94566 38.4554 9.21299 38.4554 10.5199ZM35.2871 10.5199C35.2871 9.56942 35.1287 8.65853 34.7723 7.82685C34.4158 6.99517 33.9406 6.20309 33.2673 5.56942C32.6337 4.89616 31.9208 4.42091 31.0891 4.06447C30.2574 3.70804 29.3861 3.54962 28.4752 3.54962C27.5644 3.54962 26.6931 3.66843 25.8614 4.02487C25.0297 4.3813 24.2772 4.89616 23.6436 5.52982C23.0099 6.20309 22.495 6.95556 22.1782 7.78724C21.8614 8.61893 21.6634 9.52982 21.6634 10.4803C21.6634 11.4308 21.8218 12.3021 22.1782 13.1734C22.5347 14.0447 23.0099 14.7575 23.6436 15.4308C24.2772 16.1041 25.0297 16.6189 25.8614 16.9358C26.6931 17.2922 27.5644 17.4506 28.4752 17.4506C29.3861 17.4506 30.2574 17.2922 31.0891 16.9358C31.9208 16.5793 32.6337 16.0645 33.3069 15.4308C33.9406 14.7575 34.4554 14.0051 34.8119 13.1734C35.1287 12.3417 35.2871 11.4704 35.2871 10.5199Z"
      fill="black" />
    <path
      d="M46.8911 19.8269V1.13379H49.9406V8.85656L56.6733 1.13379H60.3961L52.9901 9.45062L61.2673 19.8269H57.3466L49.9406 10.2823V19.8269H46.8911Z"
      fill="black" />
    <path
      d="M71.1683 19.8269V11.2724L64.8713 1.13379H68.0792L72 7.47042C72.0792 7.62884 72.198 7.82686 72.3564 8.10409C72.5148 8.38131 72.6337 8.65854 72.7921 8.97537C72.9109 8.65854 73.0297 8.38131 73.1881 8.14369C73.3465 7.90607 73.4653 7.62884 73.5841 7.43082L77.6238 1.17339H80.6733L74.2574 11.312V19.8665H71.1683V19.8269Z"
      fill="black" />
    <path
      d="M105.822 10.52C105.822 11.8665 105.584 13.0942 105.069 14.2823C104.554 15.4705 103.842 16.5398 102.891 17.4507C101.941 18.3616 100.832 19.0744 99.6436 19.5893C98.4554 20.1041 97.1881 20.3022 95.8416 20.3022C94.495 20.3022 93.2277 20.0645 92 19.5497C90.7723 19.0348 89.703 18.3616 88.7525 17.4111C87.802 16.5002 87.0891 15.4309 86.5743 14.2427C86.099 13.0546 85.8218 11.8269 85.8218 10.4804C85.8218 9.13383 86.0594 7.86651 86.5743 6.71799C87.0495 5.52987 87.802 4.46057 88.7525 3.54967C89.703 2.63878 90.7723 1.92591 92 1.45066C93.1881 0.975417 94.495 0.737793 95.8416 0.737793C97.1881 0.737793 98.4554 0.975417 99.6832 1.45066C100.871 1.92591 101.98 2.63878 102.931 3.54967C103.881 4.50017 104.594 5.56948 105.109 6.7576C105.584 7.94571 105.822 9.21304 105.822 10.52ZM102.653 10.52C102.653 9.56948 102.495 8.65859 102.139 7.8269C101.782 6.99522 101.307 6.20314 100.634 5.56948C100 4.89621 99.2871 4.42096 98.4554 4.06453C97.6238 3.70809 96.7525 3.54967 95.8416 3.54967C94.9307 3.54967 94.0594 3.70809 93.2277 4.06453C92.396 4.42096 91.6436 4.93581 91.0099 5.56948C90.3762 6.24274 89.8614 6.99522 89.5446 7.8269C89.1881 8.65859 89.0297 9.56948 89.0297 10.52C89.0297 11.4705 89.1881 12.3418 89.5446 13.213C89.901 14.0447 90.3762 14.7972 91.0099 15.4705C91.6436 16.1437 92.396 16.6586 93.2277 16.9754C94.0594 17.2922 94.9307 17.4903 95.8416 17.4903C96.7525 17.4903 97.6238 17.3319 98.4554 16.9754C99.2871 16.619 100 16.1041 100.673 15.4705C101.307 14.7972 101.822 14.0447 102.178 13.213C102.495 12.3418 102.653 11.4705 102.653 10.52Z"
      fill="black" />
    <path
      d="M113.228 16.0645L115.644 14.9556C115.881 15.7873 116.277 16.421 116.911 16.8566C117.505 17.2922 118.297 17.5299 119.248 17.5299C120.158 17.5299 120.871 17.2922 121.386 16.7774C121.901 16.2625 122.178 15.5893 122.178 14.7576C122.178 13.6487 121.267 12.6982 119.446 11.8269C119.208 11.7081 119.01 11.5893 118.851 11.5497C116.792 10.5596 115.406 9.64868 114.733 8.817C114.059 7.98532 113.703 6.99522 113.703 5.8467C113.703 4.34175 114.218 3.07443 115.248 2.16354C116.277 1.21304 117.624 0.737793 119.327 0.737793C120.713 0.737793 121.861 1.01502 122.772 1.52987C123.683 2.04472 124.356 2.8368 124.713 3.8269L122.337 5.05462C121.98 4.46057 121.545 4.02492 121.109 3.74769C120.673 3.47047 120.158 3.35165 119.564 3.35165C118.733 3.35165 118.099 3.54967 117.624 3.98532C117.149 4.42096 116.911 4.97542 116.911 5.68829C116.911 6.7972 117.98 7.86651 120.079 8.817C120.238 8.89621 120.356 8.93581 120.475 9.01502C122.337 9.8467 123.604 10.6784 124.277 11.5101C124.95 12.3418 125.307 13.3319 125.307 14.5596C125.307 16.3418 124.752 17.7279 123.644 18.7972C122.535 19.8269 121.03 20.3418 119.129 20.3418C117.545 20.3418 116.238 19.9853 115.208 19.2328C114.178 18.4804 113.545 17.4507 113.228 16.0645Z"
      fill="black" />
    <path
      d="M131.248 19.8269V1.13379H134.297V8.02488H143.485V1.13379H146.535V19.8269H143.485V10.7576H134.297V19.8269H131.248Z"
      fill="black" />
    <path d="M153.465 19.8269V1.13379H156.515V19.8269H153.465Z" fill="black" />
    <path
      d="M166.337 11.4704V19.8269H163.485V1.13379H167.723C168.951 1.13379 169.941 1.213 170.614 1.37141C171.287 1.52983 171.881 1.80706 172.356 2.16349C172.951 2.59914 173.386 3.1932 173.703 3.90607C174.02 4.61894 174.178 5.41102 174.178 6.2427C174.178 7.74765 173.822 8.89616 173.109 9.76745C172.396 10.5991 171.327 11.114 169.901 11.312L176.317 19.8269H172.871L166.653 11.4704H166.337ZM166.535 9.09419H167.089C168.713 9.09419 169.782 8.89616 170.297 8.53973C170.812 8.18329 171.089 7.51003 171.089 6.55953C171.089 5.52983 170.812 4.81696 170.257 4.38131C169.703 3.94567 168.634 3.74765 167.129 3.74765H166.574V9.09419H166.535Z"
      fill="black" />
    <path d="M186.772 3.70805V19.8269H183.723V3.70805H178.772V1.13379H191.723V3.70805H186.772Z"
      fill="black" />
    <path
      d="M105.861 10.4802C105.861 16.0248 101.307 20.5 95.6832 20.5C90.0594 20.5 85.5049 16.0248 85.5049 10.4802C85.5445 4.97525 90.099 0.5 95.7228 0.5C101.307 0.5 105.861 4.97525 105.861 10.4802Z"
      fill="#D2232A" />
  </g>
  <defs>
    <clipPath id="clip0_4143_61914">
      <rect width="191.723" height="20" fill="white" transform="translate(0 0.5)" />
    </clipPath>
  </defs>
</svg>
  